# xmcd
# Track frame offsets:
# 150
# 13727
# 33417
# 50552
# 66052
# 84555
# 103098
# 122976
# 142153
# 162650
# 176796
# 194992
# 210534
# 228599
# 250247
# 266613
#
# Disc length: 3920 seconds
# Revision: 0
# Processed by: cddbd v1.5.2PL0 Copyright (c) Steve Scherf et al.
# Submitted via: VisiTrax 2.11.3.279 - For more info visit www.synapsa.com
#
DISCID=fa0f4e10
DTITLE=Bobby Bare - Darker Than Light
DYEAR=2012
DGENRE=Country
TTITLE0=Going Down The Road (I Ain't Going To Be Treated This Way)
TTITLE1=John Hardy
TTITLE2=Boll Weevil
TTITLE3=Farewell Angelina
TTITLE4=House Of The Rising Sun
TTITLE5=Lookabout Mountain
TTITLE6=I Was Drunk
TTITLE7=I Still Havent Found What I'm Looking For
TTITLE8=Dark As A Dungeon
TTITLE9=I Was A Young Man Once
TTITLE10=Banks Of The Ohio
TTITLE11=Shenandoah
TTITLE12=Woody
TTITLE13=Tennessee Stud
TTITLE14=Tom Dooley
TTITLE15=The Devil And Billy Markham (Explicit)
EXTD=
EXTT0=
EXTT1=
EXTT2=
EXTT3=
EXTT4=
EXTT5=
EXTT6=
EXTT7=
EXTT8=
EXTT9=
EXTT10=
EXTT11=
EXTT12=
EXTT13=
EXTT14=
EXTT15=
PLAYORDER=
